<svg id="Layer_1" data-name="Layer 1" xmlns="http://www.w3.org/2000/svg" viewBox="0 0 467.73 458.77"><defs><style>.cls-1{fill:#734e9f;}</style></defs><g id="QhSAZQ.tif"><path class="cls-1" d="M.48,206.26c1.27,0,2.54,0,3.81,0q85.34-.06,170.68-.13c4.93,0,9.85-.26,14.77-.48,3.15-.14,3.3-.45,1.79-3.07Q152,133.73,112.43,64.93c-4.51-7.85-8.89-15.78-13.43-23.61-1.09-1.87-.78-2.89,1-4,11.54-7.33,23.55-13.85,35.36-20.72,1.8-1.05,2.38,0,3.09,1.25,7.4,12.69,14.84,25.37,22.21,38.08,23.79,41,47.17,82.28,71.68,122.88.17.28.35.54.49.82.85,1.68,1.69,1.93,2.78.13,1.72-2.85,3.64-5.59,5.31-8.47q36.65-63.33,73.22-126.69c5.08-8.8,10.21-17.58,15.2-26.44,1.08-1.91,2-2.41,4-1.21,11.34,6.74,23,12.85,34.16,19.95,3,1.9,3,2,1.31,5q-18.69,32.82-37.46,65.6-26.73,46.47-53.6,92.88c-.71,1.24-1.35,2.52-2,3.79-.51,1-.29,1.51.88,1.52l1.91,0c33.6.8,67.21.42,100.82.52,28.29.08,56.58,0,84.87,0,3.63,0,3.63,0,3.63,3.71v39.57c0,3.46,0,3.47-3.4,3.47H427.54l-148,.18c-4.69,0-4.75,0-2.49,4q24.25,42.27,48.56,84.51,21.76,37.94,43.51,75.87c1.27,2.21.79,3.28-1.2,4.55-11.52,7.36-23.69,13.6-35.4,20.65-1.69,1-2.22-.09-2.88-1.24q-7.73-13.43-15.46-26.84c-25.73-44.77-51.53-89.49-77.78-134-2.05-3.48-2.12-3.49-4.19-.06-18.09,29.82-35.44,60.07-52.89,90.26q-20.4,35.28-40.75,70.58c-.69,1.2-1.22,2.16-2.88,1.18-11.65-6.83-23.6-13.14-35-20.4-3.09-2-3-2-1.29-5.2,15.86-28.63,32.54-56.79,48.83-85.18,14.47-25.21,29.27-50.24,43.45-75.62,1.45-2.6,1.41-2.66-1.42-2.78-16.68-.69-33.37-.36-50-.4Q70.32,252.91.48,253Z"/></g></svg>