<svg id="Layer_1" data-name="Layer 1" xmlns="http://www.w3.org/2000/svg" viewBox="0 0 981 737"><defs><style>.cls-1{fill:#969696;}</style></defs><g id="_32WOjm.tif" data-name="32WOjm.tif"><path class="cls-1" d="M882.1,737H100.9a29.11,29.11,0,0,0-2.92-.61c-54.09-6.07-96.34-53.13-96.35-107.5q0-259.39,0-518.8A104.11,104.11,0,0,1,7.23,76.31C22.41,31.5,64.33,1.8,112.53,1.8q378.86,0,757.72,0c1,0,2,0,3,0,34,1.19,62.09,14.62,83.87,40.87,13.32,16.06,20.62,34.77,23.88,55.2V641.13c-.25,1.3-.52,2.6-.76,3.9q-9.91,53.65-57.83,79.82C909.84,731.71,896.16,735,882.1,737ZM491.2,695H858.27a187.47,187.47,0,0,0,23.91-1.22c29-3.74,48.12-20.28,54.35-47.44a123.48,123.48,0,0,0,3.15-27.7q0-249.12,0-498.25a139,139,0,0,0-2-22.32C933,69.44,915.89,51.9,887.54,46.23c-9.37-1.87-18.81-2.19-28.3-2.19H123.59c-9.32,0-18.6.32-27.81,2.15-27.25,5.41-44,21.37-49.67,48.69a140.24,140.24,0,0,0-2.77,28.75q0,245.88,0,491.76a157.86,157.86,0,0,0,2.07,25.33c4.6,28.22,20.7,45.34,48.47,51.69,10,2.27,20.09,2.57,30.26,2.57Q307.66,695,491.2,695Z"/><path class="cls-1" d="M491.08,635.39H113c-9.44,0-9.45,0-9.45-9.56q0-84.14-.09-168.26c0-4.77,1.32-7.94,5.13-11q97.62-77.81,195-156c4.11-3.3,6.51-1.94,9.78.7,30.47,24.52,61.07,48.9,91.47,73.51,3.86,3.12,6.24,3.12,10.09-.15Q542.46,256.48,670.19,148.45c3.71-3.15,5.9-3.19,9.52.08Q777,236.37,874.58,323.91a13.59,13.59,0,0,1,5,11.16q-.21,146.06-.11,292.1c0,8.2,0,8.22-8.28,8.22Z"/><path class="cls-1" d="M185.75,268a81.74,81.74,0,0,1-82.22-82c0-45.34,37.15-82.54,82.2-82.31,45.24.23,82.34,37.48,82.2,82.53S230.94,268,185.75,268Z"/></g></svg>