<svg id="Layer_1" data-name="Layer 1" xmlns="http://www.w3.org/2000/svg" viewBox="0 0 467.73 458.77"><defs><style>.cls-1{fill:#81caa1;}</style></defs><path class="cls-1" d="M234,370.29C163,369.71,104.62,317.16,96.4,246.37c0-.24-.05-.48-.07-.71-1.37-14-1.27-14,12.5-14.65,4.3-.19,8.61-.57,12.88-1.06,5.72-.65,8,1.45,8.39,7.5,2.75,47.27,35.41,85.51,81.88,96.33,61.62,14.34,123.86-32.2,127-95.28.36-7.1,2.91-9.32,9.57-8.54a149.58,149.58,0,0,0,17.18,1.14c5.54,0,7.67,2.16,7.4,7.77-1.21,25.3-9.14,48.43-22.91,69.44C324.77,347.15,280.24,370.67,234,370.29Z"/><path class="cls-1" d="M192,177.85a22.12,22.12,0,0,1-22.47,22.21c-12.43-.26-21.88-10.31-21.66-23a22.08,22.08,0,0,1,22.11-21.85C182.32,155.22,192,165.21,192,177.85Z"/><path class="cls-1" d="M321.35,178a22.12,22.12,0,0,1-22.58,22.1c-12.43-.34-21.81-10.41-21.54-23.13a22.07,22.07,0,0,1,22.21-21.74C311.84,155.29,321.48,165.3,321.35,178Z"/><path class="cls-1" d="M451.26,232.06A216.39,216.39,0,0,0,204.53,17.21C123.76,29,67.38,74.6,34.18,149c-7.87,17.63-11.49,36.46-15.27,55.23v55.66c3.78,18.77,7.4,37.59,15.27,55.22,33.2,74.41,89.58,120,170.35,131.8A216.39,216.39,0,0,0,451.26,232.06ZM235.14,424.66c-106.44.44-193.31-84.31-193.66-192.6.35-108.3,87.22-193,193.66-192.6,108.51.45,191.91,87.2,192.69,192.6C427.05,337.46,343.65,424.2,235.14,424.66Z"/></svg>