<svg id="Layer_1" data-name="Layer 1" xmlns="http://www.w3.org/2000/svg" viewBox="0 0 467.73 458.77"><defs><style>.cls-1{fill:#ef8db9;}</style></defs><path class="cls-1" d="M452,192.81c-5-3.42-10.09-6.79-15-10.35-1.95-1.4-3.1-1.25-4.58.68a152.88,152.88,0,0,1-15.48,17.78c-10.07,9.61-21.84,12.39-35.21,8.86-9.19-2.42-17-7.48-24.49-13-9.49-7-18.39-14.82-28.44-21.1-11-6.86-22.71-11.31-40.06-11.2-6.24,0-14.41,2.05-23,7.23-13.87,8.43-24.77,19.76-34.06,32.65a11.1,11.1,0,0,0-1.42,2l-.38.58q-1.62,2.32-3.18,4.72a2.68,2.68,0,0,0-.29.55,78.91,78.91,0,0,1-13.08,15.5c-12.72,11.11-26.69,14.18-42.48,6.9a133.46,133.46,0,0,1-23.51-14.43c-8.7-6.44-16.89-13.58-26.29-19-17.58-10.18-35.78-12.64-54.64-3.63C48.54,206,35.47,219.67,24.84,236c-1,1.51-.24,2.22.91,3,5,3.43,10.09,6.8,15,10.36,1.95,1.4,3.1,1.25,4.58-.68a152.88,152.88,0,0,1,15.48-17.78c10.07-9.61,21.84-12.39,35.21-8.87,9.19,2.43,17,7.48,24.49,13.05,9.49,7,18.39,14.82,28.44,21.1,11,6.86,22.71,11.31,40.06,11.2,6.24,0,14.41-2.05,23-7.24,13.88-8.42,24.78-19.75,34.07-32.64a11.51,11.51,0,0,0,1.42-2l.38-.58q1.62-2.34,3.18-4.72a2.68,2.68,0,0,0,.29-.55,78.91,78.91,0,0,1,13.08-15.5c12.72-11.11,26.69-14.18,42.48-6.9a133.82,133.82,0,0,1,23.51,14.43c8.69,6.43,16.89,13.58,26.29,19,17.58,10.19,35.78,12.65,54.64,3.64,17.86-8.53,30.93-22.23,41.56-38.53C453.88,194.3,453.13,193.6,452,192.81Z"/></svg>