<svg id="Layer_1" data-name="Layer 1" xmlns="http://www.w3.org/2000/svg" viewBox="0 0 467.73 458.77"><defs><style>.cls-1{fill:#3d8844;}</style></defs><g id="fN2epa.tif"><path class="cls-1" d="M467.73,236.79q-41.78,6.9-83.55,13.8c-18.83,3.12-37.64,6.37-56.49,9.36-3.95.63-5.24,1.21-2.89,5.45Q357.22,324.11,389.22,383c.93,1.7,2.22,3.32,2.27,5.43-1.46,1-2.55,0-3.67-.56q-53.91-27.65-107.77-55.39c-3.54-1.83-4.73-1.2-6,2.38q-21.15,58.88-42.53,117.66c-.46,1.25-.79,2.56-1.35,3.76-.45,1-.54,2.56-2,2.45s-1.57-1.57-2-2.61q-6.51-17.52-13-35.06Q197,376.88,180.82,332.63c-1.29-3.57-2.45-4.24-5.9-2.28q-45.3,25.75-90.75,51.23c-6.34,3.57-12.7,7.11-19.48,10.9-.63-3.29,1.34-5.1,2.47-7.09q34.25-60.25,68.56-120.47c3.06-5.38,3-5.43-3-6.92L5.1,226.1c-1.74-.43-3.43-1-5.1-1.5.2-1.93,1.52-1.83,2.61-2l132.3-26.89c6.13-1.25,6.07-1.19,2.87-6.48q-36.25-60-72.44-119.94c-.75-1.25-1.9-2.35-1.85-4.28,1.88-.65,3,.88,4.25,1.67q38,24.39,75.86,48.91c11.59,7.48,23.28,14.82,34.76,22.46,3.22,2.14,4.15,1.51,5.31-1.93Q204.19,75.13,225,14.27C226.55,9.6,228.25,5,230,0c2.44,1.32,2.56,3.47,3.15,5.19q22.08,64.62,44.09,129.26c2,5.79,2,5.88,7.29,2.52q51.49-32.84,103-65.72c1.44-.91,2.65-2.6,5.53-2-3.23,5.63-6.26,11-9.41,16.4q-28.9,49.23-57.93,98.39c-2.19,3.69-1,4.5,2.42,5.62q67.08,21.81,134.08,43.85c1.88.62,3.67,1.49,5.51,2.24Z"/></g></svg>